<svg width="42" height="38" viewBox="0 0 42 38" fill="none" xmlns="http://www.w3.org/2000/svg">
<path d="M17.8489 34.4593C18.0924 33.8334 18.2086 33.1652 18.1908 32.4938C18.2287 30.6331 18.7268 28.8107 19.6406 27.1894C20.5522 25.5709 21.8517 24.2042 23.4223 23.2123C24.0039 22.9007 24.5161 22.4743 24.9281 21.9591C25.3402 21.4438 25.6433 20.8502 25.8194 20.2144C25.9954 19.5786 26.0406 18.9136 25.9522 18.2598C25.8638 17.606 25.6438 16.9769 25.3053 16.4106C24.8531 15.6542 24.2021 15.0339 23.426 14.621C22.9812 14.3121 22.5538 13.9794 22.1465 13.623L21.1256 12.6226C19.2552 10.6545 18.2069 8.0464 18.195 5.33129C18.2147 4.65976 18.0996 3.99109 17.8566 3.36475C17.6136 2.7384 17.2477 2.16706 16.7804 1.68443C16.3151 1.20234 15.7575 0.818925 15.1408 0.557077C14.5241 0.295228 13.861 0.160312 13.191 0.160382C12.5214 0.161037 11.8588 0.295979 11.2422 0.557223C10.6257 0.818467 10.0678 1.20071 9.60161 1.68133C9.13468 2.16441 8.76878 2.73576 8.52533 3.36196C8.28189 3.98815 8.16577 4.65661 8.18378 5.32822C8.19433 6.20002 8.43408 7.0537 8.87897 7.80352C9.32232 8.55207 9.95549 9.17026 10.7144 9.59556C13.7874 11.5419 15.9245 15.2616 15.9229 18.9191C15.9142 21.6106 14.8837 24.1983 13.0398 26.1591L10.7139 28.2231C9.95498 28.6465 9.32096 29.2637 8.87564 30.0135C8.42907 30.7621 8.18995 31.617 8.17832 32.4895C8.15891 33.161 8.27408 33.8296 8.51703 34.4559C8.75999 35.0822 9.12583 35.6536 9.593 36.1363C10.0583 36.6183 10.616 37.0016 11.2326 37.2635C11.8493 37.5253 12.5124 37.6603 13.1823 37.6604C13.8521 37.6599 14.515 37.525 15.1318 37.2638C15.7486 37.0025 16.3066 36.6202 16.773 36.1394C17.2397 35.6565 17.6055 35.0853 17.8489 34.4593Z" fill="#1E6594"/>
<path d="M24.6501 8.11532C24.0992 7.28759 23.8059 6.31371 23.8063 5.31871C23.8077 3.98587 24.3363 2.70769 25.2766 1.76309C26.0942 0.941245 27.1723 0.42954 28.326 0.31577C29.4796 0.202 30.637 0.493256 31.5993 1.13957C32.4237 1.69356 33.0654 2.47941 33.4434 3.39787C33.8214 4.31737 33.9197 5.32797 33.7261 6.30311C33.5325 7.27825 33.0554 8.1746 32.3548 8.8799C31.6562 9.58325 30.7639 10.0625 29.7918 10.2564C28.8196 10.4504 27.8118 10.3502 26.8968 9.96879C25.9809 9.58696 25.199 8.9419 24.6501 8.11532Z" fill="#1E6594"/>
<path d="M26.0226 28.3134C26.8466 27.7613 27.8155 27.4667 28.8055 27.4671L28.8055 27.4646C29.4636 27.4657 30.115 27.5967 30.7224 27.8501C31.3297 28.1034 31.8811 28.4742 32.3449 28.9411C33.1644 29.7664 33.674 30.8492 33.7873 32.0067C33.9007 33.1642 33.611 34.3254 32.9671 35.2939C32.4175 36.1211 31.6345 36.7664 30.7176 37.1479C29.8023 37.5286 28.7943 37.6279 27.8223 37.4331C26.8503 37.2383 25.9585 36.7583 25.2605 36.0543C24.5602 35.3483 24.0838 34.4514 23.891 33.4758C23.6982 32.5002 23.7976 31.4895 24.1766 30.5701C24.5555 29.652 25.1978 28.8667 26.0226 28.3134Z" fill="#1E6594"/>
<path d="M40.7816 16.1198C41.3311 16.9472 41.6244 17.9195 41.6242 18.9141C41.6228 20.2472 41.0942 21.5257 40.1539 22.4708C39.6896 22.9371 39.1379 23.3073 38.5303 23.5602C37.9228 23.813 37.2713 23.9435 36.6133 23.9442C35.6222 23.9438 34.6537 23.6484 33.8311 23.0955C33.0068 22.5415 32.3651 21.7557 31.9871 20.8372C31.6088 19.9176 31.5103 18.9067 31.704 17.9313C31.8976 16.9559 32.3748 16.0594 33.0757 15.354C33.7744 14.6504 34.6669 14.171 35.6393 13.977C36.6117 13.783 37.6198 13.8833 38.5349 14.2651C39.4509 14.6472 40.2329 15.2927 40.7816 16.1198Z" fill="#1E6594"/>
<path d="M2.60223 14.7146C3.42622 14.1624 4.39384 13.8678 5.38509 13.8683C6.04302 13.8699 6.69417 14.0013 7.30128 14.2549C7.90838 14.5085 8.45954 14.8793 8.92321 15.346C9.74236 16.171 10.2517 17.2534 10.365 18.4104C10.4784 19.5674 10.1889 20.7281 9.54547 21.6963C8.99594 22.5228 8.21347 23.1677 7.29717 23.5491C6.38155 23.9279 5.37405 24.0262 4.40248 23.8315C3.43091 23.6368 2.53908 23.1579 1.84014 22.4555C1.14007 21.7496 0.663819 20.8528 0.471018 19.8775C0.278217 18.9022 0.377437 17.8917 0.756254 16.9725C1.13489 16.054 1.77726 15.2682 2.60223 14.7146Z" fill="#1E6594"/>
</svg>
