<svg width="50" height="46" viewBox="0 0 50 46" fill="none" xmlns="http://www.w3.org/2000/svg">
<path d="M21.2266 41.6563C21.5185 40.9051 21.6576 40.1032 21.6359 39.2975C21.6804 37.0646 22.2772 34.8775 23.3729 32.9315C24.466 30.9888 26.0247 29.3481 27.9089 28.157C28.6066 27.7828 29.2211 27.2709 29.7152 26.6523C30.2094 26.0338 30.5729 25.3214 30.7838 24.5583C30.9947 23.7952 31.0486 22.9972 30.9422 22.2127C30.8358 21.4282 30.5714 20.6734 30.1649 19.994C29.6219 19.0865 28.8404 18.3425 27.9089 17.8475C27.3749 17.477 26.8619 17.078 26.3729 16.6505L25.1474 15.4505C22.9018 13.0898 21.6425 9.96063 21.6269 6.7025C21.6501 5.89665 21.5117 5.09431 21.2198 4.34283C20.9279 3.59134 20.4885 2.90592 19.9274 2.327C19.3689 1.74873 18.6995 1.28892 17.9594 0.975025C17.2192 0.661126 16.4234 0.49957 15.6194 0.500001C14.8159 0.501134 14.0208 0.663407 13.2811 0.977219C12.5414 1.29103 11.8721 1.75001 11.3129 2.327C10.7528 2.90694 10.3141 3.59275 10.0222 4.34431C9.73043 5.09586 9.59144 5.89808 9.6134 6.704C9.62651 7.75016 9.91465 8.77445 10.4489 9.674C10.9813 10.572 11.7414 11.3135 12.6524 11.8235C16.3409 14.1575 18.9074 18.62 18.9074 23.009C18.8983 26.2388 17.663 29.3447 15.4514 31.6985L12.6614 34.1765C11.7509 34.685 10.9904 35.426 10.4564 36.326C9.9209 37.2245 9.6344 38.2505 9.6209 39.2975C9.59796 40.1033 9.7365 40.9056 10.0284 41.657C10.3203 42.4085 10.7596 43.0939 11.3204 43.673C11.8791 44.2511 12.5484 44.7108 13.2885 45.0247C14.0287 45.3386 14.8245 45.5003 15.6284 45.5C16.4322 45.4991 17.2276 45.3369 17.9676 45.0231C18.7075 44.7093 19.377 44.2502 19.9364 43.673C20.4962 43.0932 20.9348 42.4076 21.2266 41.6563Z" fill="#1E6594"/>
<path d="M29.3744 10.04C28.7129 9.047 28.3604 7.8785 28.3604 6.6845C28.3614 5.08509 28.995 3.55101 30.1229 2.417C31.1036 1.43036 32.3971 0.815755 33.7814 0.678634C35.1658 0.541513 36.5547 0.890422 37.7099 1.6655C38.6994 2.32986 39.4698 3.27254 39.9239 4.3745C40.378 5.47771 40.4966 6.69038 40.2647 7.86065C40.0328 9.03092 39.4608 10.1068 38.6204 10.9535C37.7825 11.7979 36.712 12.3734 35.5455 12.6067C34.3791 12.8399 33.1696 12.7203 32.0714 12.263C30.9722 11.8053 30.0336 11.0316 29.3744 10.04Z" fill="#1E6594"/>
<path d="M31.0319 34.277C32.0204 33.614 33.1829 33.26 34.3709 33.26V33.257C35.1606 33.258 35.9424 33.4148 36.6713 33.7185C37.4003 34.0223 38.0622 34.4669 38.6189 35.027C39.6028 36.0168 40.2148 37.316 40.3515 38.7049C40.4881 40.0939 40.141 41.4874 39.3689 42.65C38.7098 43.643 37.7706 44.4177 36.6704 44.876C35.5722 45.3333 34.3627 45.4529 33.1963 45.2197C32.0298 44.9864 30.9593 44.4109 30.1214 43.5665C29.2807 42.7196 28.7085 41.6435 28.4766 40.473C28.2448 39.3024 28.3635 38.0894 28.8179 36.986C29.272 35.8841 30.0425 34.9414 31.0319 34.277Z" fill="#1E6594"/>
<path d="M48.7364 19.637C49.3962 20.6296 49.7486 21.7962 49.7489 22.9897C49.7479 24.5895 49.1143 26.124 47.9864 27.2585C47.4295 27.8184 46.7676 28.2629 46.0387 28.5666C45.3098 28.8703 44.5281 29.0273 43.7384 29.0285C42.5491 29.0285 41.3868 28.6745 40.3994 28.0115C39.4099 27.3471 38.6395 26.4045 38.1854 25.3025C37.731 24.1991 37.6123 22.9861 37.8441 21.8155C38.076 20.645 38.6482 19.5689 39.4889 18.722C40.3269 17.8773 41.3977 17.3016 42.5645 17.0683C43.7312 16.8351 44.9411 16.9549 46.0394 17.4125C47.1388 17.8706 48.0775 18.6448 48.7364 19.637Z" fill="#1E6594"/>
<path d="M2.92039 17.9705C3.90889 17.3075 5.06989 16.9535 6.25939 16.9535C7.04891 16.9552 7.83035 17.1125 8.55901 17.4165C9.28767 17.7204 9.94925 18.1651 10.5059 18.725C11.4893 19.7145 12.101 21.0131 12.2377 22.4015C12.3743 23.7898 12.0275 25.1828 11.2559 26.345C10.5969 27.3371 9.65826 28.1113 8.55889 28.5695C7.46035 29.0246 6.25139 29.143 5.08541 28.9099C3.91943 28.6767 2.84899 28.1025 2.00989 27.26C1.16945 26.4133 0.597479 25.3374 0.365613 24.1672C0.133747 22.9969 0.252289 21.7842 0.706393 20.681C1.16028 19.5785 1.93072 18.6353 2.92039 17.9705Z" fill="#1E6594"/>
</svg>
